<svg id="レイヤー_1" data-name="レイヤー 1" xmlns="http://www.w3.org/2000/svg" viewBox="0 0 376.471 429.777">
  <defs>
    <style>
      .cls-1, .cls-2, .cls-3 {
        fill: #fff;
      }

      .cls-2 {
        font-size: 63px;
        letter-spacing: 0.18em;
      }

      .cls-2, .cls-3 {
        font-family: Electroharmonix-Regular, Electroharmonix;
      }

      .cls-3 {
        font-size: 55px;
        letter-spacing: 0.06em;
      }

      .cls-4 {
        letter-spacing: 0.22em;
      }

      .cls-5 {
        letter-spacing: 0.06em;
      }
    </style>
  </defs>
  <path class="cls-1" d="M348.251,48.463c-3.8,6.283-7.585,11.547-10.343,17.3-7.14,14.9-7.84,30.282-2.705,46.069a63.973,63.973,0,0,0,12.582,21.836c2.134,2.508.911,4.337-1.419,5.645a152.7,152.7,0,0,0-56.07,54.109c-5.343,8.7-9.392,18.238-13.528,27.616-1.517,3.441-3.337,5.064-6.977,5.06-28-.029-56,.011-84-.04-4.586-.009-5.526-1.463-4.042-6,16.827-51.436,44.1-95.792,87.5-129.25,23.222-17.9,48.785-31.5,76.094-41.96A17.591,17.591,0,0,1,348.251,48.463Z" transform="translate(-80.155 -47.335)"/>
  <path class="cls-1" d="M302.588,49.276c-7.2,4.3-14.463,8.494-21.586,12.915a256.81,256.81,0,0,0-75.014,70.642,8.187,8.187,0,0,1-7.428,3.925q-56.235-.079-112.471.025c-4.57.013-5.966-1.672-5.933-6.2.184-25.5.079-51,.095-76.494,0-6.314.423-6.708,7.437-6.71q64.233-.026,128.467-.01,39.741,0,79.48.032a69.063,69.063,0,0,1,6.953.7Z" transform="translate(-80.155 -47.335)"/>
  <path class="cls-1" d="M211.219,403.913q-20.75,0-41.5,0c-6.652-.007-6.948-.208-6.864-6.624.282-21.493.447-42.992,1.079-64.476.318-10.791,1.658-21.549,2.3-32.335.2-3.286,1.882-3.757,4.545-3.739,8.833.06,17.666.017,26.5.017,19.666,0,39.333.1,59-.08,4.33-.04,5.7,1.192,5.633,5.674-.389,25.161-.392,50.327-.67,75.49-.078,7.141-.75,14.273-.934,21.414-.112,4.316-2.826,4.674-6.091,4.669Q232.719,403.889,211.219,403.913Z" transform="translate(-80.155 -47.335)"/>
  <path class="cls-1" d="M351.319,350.123c0-15.99.107-31.981-.072-47.969-.046-4.08,1.213-5.5,5.4-5.476q37.968.231,75.937,0c4.195-.025,5.382,1.418,5.365,5.492q-.2,47.969.018,95.938c.026,4.77-1.729,5.913-6.158,5.884q-37.218-.243-74.438.021c-4.986.044-6.194-1.8-6.131-6.422C351.451,381.771,351.319,365.946,351.319,350.123Z" transform="translate(-80.155 -47.335)"/>
  <path class="cls-1" d="M394.5,136.732c-21.99,1.49-45.1-18.5-44.82-44.284.278-25.414,19.489-44.9,44.73-45.111,26.269-.218,45.7,19.711,45.737,45.2C440.18,116.54,419.712,138.005,394.5,136.732Z" transform="translate(-80.155 -47.335)"/>
  <path class="cls-1" d="M394.831,154c12.326,0,24.655.142,36.977-.076,4.409-.078,6.215,1.087,6.16,5.881q-.344,30.234,0,60.473c.054,4.765-1.7,5.928-6.14,5.9q-37.227-.245-74.456,0c-4.429.029-6.2-1.128-6.145-5.9q.336-30.234,0-60.474c-.051-4.737,1.678-5.969,6.128-5.886C369.842,154.149,382.338,154,394.831,154Z" transform="translate(-80.155 -47.335)"/>
  <text class="cls-2" transform="translate(12.21 233.658)">SEVEN&amp;I</text>
  <text class="cls-3" transform="translate(12.441 416.577)">SEVE<tspan class="cls-4" x="154.878" y="0">N</tspan><tspan class="cls-5" x="202.673" y="0">CAFE</tspan></text>
</svg>
